<svg width="840" height="254" viewBox="0 0 840 254" fill="none" xmlns="http://www.w3.org/2000/svg">
<path d="M24.888 134.284V85.3561H0V52.5512H24.888V18.1159H63.7151V52.5512H111.558V85.3561H63.7151V133.182C63.7151 148.279 72.7762 156.959 86.9569 156.959C94.8855 156.959 105.079 154.498 111.558 150.407V185.129C104.732 189.507 92.9675 191.696 83.3929 191.696C44.294 191.681 24.888 168.176 24.888 134.284Z" fill="white"/>
<path d="M133.984 215.187L165.97 197.69C172.011 209.45 184.093 218.463 201.52 218.463C224.762 218.463 238.158 201.524 238.158 176.373V172.539C230.773 183.484 218.752 189.492 202.064 189.492C158.042 189.492 138.908 161.337 138.908 121.165V52.5512H177.191V119.791C177.191 139.417 187.853 152.868 206.987 152.868C224.49 152.868 237.614 138.375 237.614 118.976V52.5512H276.985V175.83C276.985 223.112 246.645 254 202.064 254C169.806 254 146.293 240.338 133.984 215.187Z" fill="white"/>
<path d="M547.143 117.059V187.847H508.316V123.611C508.316 102.838 499.255 85.3561 477.961 85.3561C456.909 85.3561 447.878 102.566 447.878 123.098V187.877H409.051V123.399C409.051 102.627 399.99 85.4165 378.983 85.4165C357.372 85.4165 348.9 102.898 348.9 123.399V187.907H310.073V117.059C310.073 79.3174 332.228 47.6146 375.978 47.6146C401.953 47.6146 420.816 59.1031 428.744 77.687C437.216 59.1031 456.365 47.6146 480.695 47.6146C524.717 47.6297 547.143 79.3325 547.143 117.059Z" fill="white"/>
<path d="M570.929 161.141L599.622 145.018C605.376 155.948 614.392 160.597 628.059 160.597C640.639 160.597 648.568 155.676 648.568 147.75C648.568 125.875 574.206 144.731 574.206 92.5269C574.206 68.2064 595.53 49.079 628.89 49.079C657.871 49.079 675.374 62.6659 683.574 78.3211L654.881 94.4442C650.501 84.6012 640.654 79.9666 629.721 79.9666C620.146 79.9666 613.108 84.6012 613.108 91.7117C613.108 113.587 687.47 96.0897 687.47 146.92C687.47 174.26 660.951 191.757 630.083 191.757C601.827 191.681 582.149 181.295 570.929 161.141Z" fill="white"/>
<path d="M705.593 33.2125C705.593 14.8697 720.468 0 738.817 0H806.776C825.125 0 840 14.8697 840 33.2125V87.5602C840 105.903 825.125 120.773 806.776 120.773H738.817C720.468 120.773 705.593 105.903 705.593 87.5602V33.2125Z" fill="white"/>
<path d="M752.314 91.5702C747.28 91.5702 743.096 90.265 739.761 87.6545C736.457 85.0126 734.806 81.0812 734.806 75.8603C734.806 71.9289 735.718 68.8467 737.543 66.6137C739.399 64.3492 741.837 62.698 744.858 61.6601C747.878 60.5908 751.119 59.8988 754.58 59.5843C759.173 59.144 762.445 58.688 764.396 58.2162C766.378 57.713 767.369 56.6122 767.369 54.9138V54.6779C767.369 52.5078 766.677 50.8252 765.293 49.63C763.908 48.4349 761.91 47.8373 759.299 47.8373C756.688 47.8373 754.548 48.4034 752.881 49.5357C751.245 50.6679 750.159 52.1147 749.624 53.8759L736.316 51.753C737.574 47.1611 740.217 43.5914 744.244 41.0438C748.303 38.4648 753.337 37.1753 759.346 37.1753C763.248 37.1753 766.913 37.7886 770.342 39.0152C773.803 40.2418 776.603 42.1761 778.743 44.818C780.882 47.4284 781.952 50.8252 781.952 55.0082V90.5795H768.124V83.2199H767.699C766.41 85.7045 764.49 87.7174 761.942 89.2585C759.425 90.7996 756.216 91.5702 752.314 91.5702ZM748.728 75.3885C748.728 77.4014 749.451 78.9268 750.899 79.9647C752.377 80.9711 754.234 81.4744 756.467 81.4744C759.677 81.4744 762.304 80.5465 764.349 78.6909C766.425 76.8353 767.463 74.5236 767.463 71.7559V66.1419C766.897 66.5193 766 66.8653 764.773 67.1798C763.578 67.4943 762.304 67.7616 760.951 67.9818C759.598 68.1705 758.387 68.3435 757.317 68.5007C754.737 68.8781 752.66 69.6173 751.087 70.718C749.514 71.7874 748.728 73.3442 748.728 75.3885Z" fill="#3C3C43" fill-opacity="0.8"/>
<path d="M793.703 90.5795V37.8358H808.333V90.5795H793.703ZM801.018 31.0895C798.847 31.0895 796.975 30.3661 795.402 28.9194C793.86 27.4726 793.09 25.7271 793.09 23.6828C793.09 21.6384 793.86 19.9086 795.402 18.4933C796.975 17.0466 798.847 16.3232 801.018 16.3232C803.189 16.3232 805.045 17.0466 806.587 18.4933C808.16 19.9086 808.947 21.6384 808.947 23.6828C808.947 25.7271 808.16 27.4726 806.587 28.9194C805.045 30.3661 803.189 31.0895 801.018 31.0895Z" fill="#3C3C43" fill-opacity="0.8"/>
</svg>
