<svg width="725" height="233" viewBox="0 0 725 233" fill="none" xmlns="http://www.w3.org/2000/svg">
<g clip-path="url(#clip0_813_2)">
<path d="M85.3899 152.2C83.4611 151.45 81.7191 150.289 80.2856 148.797C78.852 147.304 77.7614 145.517 77.0899 143.56C76.3799 141.41 76.5499 138.65 77.5999 135.35C78.8355 131.79 80.5154 128.4 82.5999 125.26C85.0598 121.438 87.7831 117.793 90.7499 114.35C90.9179 114.157 91.1254 114.002 91.3583 113.896C91.5911 113.79 91.844 113.735 92.0999 113.735C92.3558 113.735 92.6087 113.79 92.8416 113.896C93.0745 114.002 93.2819 114.157 93.4499 114.35C96.4167 117.793 99.14 121.438 101.6 125.26C103.684 128.4 105.364 131.79 106.6 135.35C107.6 138.65 107.82 141.41 107.11 143.56C106.438 145.511 105.351 147.293 103.923 148.783C102.495 150.273 100.761 151.436 98.8399 152.19" stroke="#89C40F" stroke-width="10" stroke-linecap="round"/>
<path d="M68 109.54C74.6406 99.2354 82.0979 89.4807 90.3 80.3699C90.5561 80.0819 90.8703 79.8514 91.2219 79.6936C91.5735 79.5357 91.9546 79.4541 92.34 79.4541C92.7254 79.4541 93.1064 79.5357 93.458 79.6936C93.8097 79.8514 94.1239 80.0819 94.38 80.3699C102.582 89.4807 110.039 99.2354 116.68 109.54C121.49 117.16 125.68 125.17 128.06 132.8C130.44 140.43 131.06 147.4 129.18 153.1C126.613 160.92 121.279 167.534 114.18 171.7C102.3 178.95 82.45 178.95 70.57 171.7C63.4691 167.537 58.1345 160.922 55.57 153.1C53.7 147.4 54.25 140.48 56.68 132.8C59.11 125.12 63.16 117.16 68 109.54Z" stroke="#752CE7" stroke-width="12"/>
<path d="M173.9 124.6C179.32 141.82 180.69 157.74 176.34 171.09C167.76 197.42 148.29 211.95 129.98 220.09C111.98 228.09 72.98 228.09 54.98 220.09C36.66 211.98 17.19 197.44 8.60996 171.09C4.25996 157.74 5.60996 141.82 11.05 124.6C16.49 107.38 25.7 89.6 36.31 72.65C54.41 43.75 75.2 19.64 87.11 6" stroke="#752CE7" stroke-width="12" stroke-linecap="round"/>
<path d="M134.8 52.05C140.65 60.05 143.1 63.8101 148.64 72.6501C152.64 78.9801 156.39 85.4401 159.84 91.9401C161.227 94.5467 162.56 97.1634 163.84 99.7901" stroke="#752CE7" stroke-width="12" stroke-linecap="round"/>
<path d="M134 51.5601L118 62.8801C117.531 63.2202 117.135 63.6505 116.835 64.1457C116.535 64.6408 116.337 65.191 116.252 65.7638C116.167 66.3366 116.198 66.9205 116.342 67.4814C116.485 68.0423 116.74 68.5688 117.09 69.0301C122.24 75.8001 128.32 84.0301 132.87 91.2501C140.51 103.43 147.16 116.25 151.05 128.64C154.94 141.03 155.93 152.49 152.8 162.1C146.62 181.1 132.62 191.51 119.43 197.35C106.43 203.1 78.4299 203.1 65.4299 197.35C52.2499 191.51 38.2399 181.05 32.0599 162.1C28.9999 152.49 29.9999 141 33.8499 128.64C37.6999 116.28 44.3899 103.43 51.9999 91.2501C62.4899 74.5201 75.5599 58.6801 84.6399 48.2501C86.399 46.2444 87.3692 43.6678 87.3699 41.0001L87.1899 6.08008" stroke="#752CE7" stroke-width="12" stroke-linecap="round"/>
<path d="M235.36 137.21V104.8H218.88V83.07H235.36V60.26H261.07V83.07H292.75V104.8H261.07V136.48C261.07 146.48 267.07 152.23 276.46 152.23C281.71 152.23 288.46 150.6 292.75 147.89V170.89C288.23 173.79 280.44 175.24 274.1 175.24C248.21 175.23 235.36 159.66 235.36 137.21Z" fill="#752CE7"/>
<path d="M307.6 190.8L328.78 179.21C332.78 187 340.78 192.97 352.32 192.97C367.71 192.97 376.58 181.75 376.58 165.09V162.55C371.69 169.8 363.73 173.78 352.68 173.78C323.53 173.78 310.86 155.13 310.86 128.52V83.0701H336.21V127.61C336.21 140.61 343.27 149.52 355.94 149.52C367.53 149.52 376.22 139.92 376.22 127.07V83.0701H402.29V164.73C402.29 196.05 382.2 216.51 352.68 216.51C331.32 216.51 315.75 207.46 307.6 190.8Z" fill="#752CE7"/>
<path d="M581.18 125.8V172.69H555.47V130.14C555.47 116.38 549.47 104.8 535.37 104.8C521.43 104.8 515.45 116.2 515.45 129.8V172.71H489.74V130C489.74 116.24 483.74 104.84 469.83 104.84C455.52 104.84 449.91 116.42 449.91 130V172.73H424.2V125.8C424.2 100.8 438.87 79.8 467.84 79.8C485.04 79.8 497.53 87.41 502.78 99.72C508.39 87.41 521.07 79.8 537.18 79.8C566.33 79.81 581.18 100.81 581.18 125.8Z" fill="#752CE7"/>
<path d="M596.93 155L615.93 144.32C619.74 151.56 625.71 154.64 634.76 154.64C643.09 154.64 648.34 151.38 648.34 146.13C648.34 131.64 599.1 144.13 599.1 109.55C599.1 93.44 613.22 80.77 635.31 80.77C654.5 80.77 666.09 89.77 671.52 100.14L652.52 110.82C649.62 104.3 643.1 101.23 635.86 101.23C629.52 101.23 624.86 104.3 624.86 109.01C624.86 123.5 674.1 111.91 674.1 145.58C674.1 163.69 656.54 175.28 636.1 175.28C617.39 175.23 604.36 168.35 596.93 155Z" fill="#752CE7"/>
<path d="M692.71 158.75C692.726 155.622 693.667 152.569 695.414 149.975C697.161 147.381 699.637 145.362 702.529 144.172C705.421 142.982 708.601 142.675 711.668 143.288C714.735 143.901 717.552 145.408 719.764 147.619C721.976 149.83 723.485 152.646 724.1 155.712C724.715 158.779 724.41 161.959 723.221 164.852C722.033 167.745 720.016 170.222 717.423 171.971C714.83 173.719 711.777 174.662 708.65 174.68C704.429 174.664 700.385 172.981 697.4 169.997C694.414 167.014 692.728 162.971 692.71 158.75Z" fill="#89C40F"/>
</g>
<defs>
<clipPath id="clip0_813_2">
<rect width="724.4" height="232.06" fill="white"/>
</clipPath>
</defs>
</svg>
